<svg width="40" height="40" viewBox="0 0 40 40" fill="none" xmlns="http://www.w3.org/2000/svg">
<path d="M19.9996 0.000488281C8.95519 0.000488281 0 9.18782 0 20.509C0 29.5714 5.73204 37.2498 13.6783 39.964C13.7898 39.9883 13.9035 40.0002 14.0176 39.9998C14.7587 39.9998 15.0444 39.4551 15.0444 38.9819C15.0444 38.4909 15.0265 37.2052 15.0176 35.4909C14.356 35.646 13.6792 35.7269 12.9998 35.732C9.15162 35.732 8.27663 32.741 8.27663 32.741C7.36594 30.3749 6.05346 29.741 6.05346 29.741C4.31242 28.5178 6.04453 28.4821 6.17846 28.4821H6.18739C8.19628 28.6607 9.24983 30.6071 9.24983 30.6071C10.2498 32.357 11.5891 32.8481 12.7855 32.8481C13.5766 32.8323 14.3554 32.6497 15.0712 32.3124C15.2497 30.991 15.7676 30.0892 16.339 29.5714C11.9016 29.0535 7.23201 27.2946 7.23201 19.4376C7.23201 17.1966 8.00878 15.3663 9.28554 13.9377C9.08019 13.4199 8.3927 11.3306 9.48197 8.50926C9.62808 8.4743 9.77825 8.45928 9.92839 8.46462C10.6516 8.46462 12.2855 8.7414 14.9819 10.6164C18.2582 9.69969 21.7232 9.69969 24.9995 10.6164C27.6959 8.7414 29.3298 8.46462 30.053 8.46462C30.2032 8.45928 30.3533 8.4743 30.4994 8.50926C31.5887 11.3306 30.9012 13.4199 30.6959 13.9377C31.9726 15.3752 32.7494 17.2055 32.7494 19.4376C32.7494 27.3125 28.0709 29.0446 23.6156 29.5535C24.3299 30.1874 24.9728 31.4374 24.9728 33.3481C24.9728 36.0891 24.946 38.3034 24.946 38.973C24.946 39.4551 25.2228 39.9998 25.9638 39.9998C26.0838 40.0003 26.2035 39.9883 26.3209 39.964C34.2762 37.2498 39.9993 29.5624 39.9993 20.509C39.9993 9.18782 31.0441 0.000488281 19.9996 0.000488281Z" fill="#ECFFFE"/>
</svg>
